<?xml version="1.0" encoding="utf-8"?>
<!-- Generator: Adobe Illustrator 22.0.0, SVG Export Plug-In . SVG Version: 6.00 Build 0)  -->
<svg version="1.2" baseProfile="tiny" id="Layer_1" xmlns="http://www.w3.org/2000/svg" xmlns:xlink="http://www.w3.org/1999/xlink"
	 x="0px" y="0px" viewBox="0 0 425.2 213.3" xml:space="preserve">
<g>
	<path fill="#ED1C24" d="M394,0H29.8C13.2,0,0.7,7.1,0,32.9v152.8c0,11.1,9.4,27.6,29.9,27.6h364.7c23.9,0,30.6-18.1,30.6-29.8V29.2
		C425.6,12.1,412.9,0,394,0z"/>
	<g>
		<path fill="#FFFFFF" d="M70.5,91.9c-3,3.9-7.3,5.8-12.5,6.1c-9.7,0-17.6-8.1-17.6-18.2c0-10,7.9-18.2,17.6-18.2
			c5.5,0,9.8,2.6,13,6.6l13.5,0c-4.7-11.2-14-18-26.2-18c-16.3,0-29.4,13.2-29.4,29.5c0,16.3,13.2,29.5,29.4,29.5
			c12,0,20.8-6.2,25.8-17.4L70.5,91.9z"/>
		<path fill="#FFFFFF" d="M171.7,89L171.7,89L171.7,89c0.8,0.3,1.6,0.4,2.5,0.4c4.6,0,8.3-3.9,8.3-8.6c0-4.4-3.2-8-7.2-8.5
			c-3.6-20.3-21.6-35.8-43.3-35.8c-21.7,0-39.6,15.4-43.3,35.7c0,0,0,0,0,0c-4,0.7-7,4.2-7,8.5c0,4.4,3.2,8.1,7.4,8.5c0,0,0,0,0,0
			l0,0c0.3,0,0.6,0.1,0.9,0.1c0.8,0,1.7-0.1,2.4-0.3l0.2-0.1c0,0,0,0,0,0c-1.9-10.5-0.4-16.4-0.4-16.4c3.6-18.5,20.1-32.6,39.9-32.6
			c19.8,0,36.3,14.1,39.9,32.7C172,72.5,173.6,80.7,171.7,89"/>
		<polygon fill="#FFFFFF" points="196.9,108 186,108 186,51.4 200.8,51.4 215.1,92.6 229.5,51.4 244.2,51.4 244.2,108 233.3,108 
			233.6,67.1 219.3,108 211,108 196.6,67 		"/>
		<polygon fill="#FFFFFF" points="288.1,108 288.1,98 268.4,98 268.4,84 288.1,84 288.1,74.2 268.4,74.2 268.4,61.3 288.1,61.3 
			288.1,51.4 257.5,51.4 257.5,108 		"/>
		<path fill="#FFFFFF" d="M301.9,108"/>
		<path fill="#FFFFFF" d="M349.7,79.9c-0.2-3.3,0.3-6-2.2-12.9c-2.5-6.9-7.8-10.7-7.8-10.7c-6.3-5.6-17.2-5-17.2-5h-20.5V108h20.9
			c0,0,7.2,0,10.3-1.5c3.1-1.4,3.9-1.6,6.4-3.5c6.4-5.1,8.4-11.8,8.4-11.8C349.9,86,349.7,79.9,349.7,79.9z M335.9,91.3
			c0,0-1.4,2.8-5,4.9c-1.3,0.7-4.1,1.7-5.6,1.8c-1.4,0.1-4.3,0.3-4.3,0.3H313V61h7.7c0,0,4.6-0.1,8.5,1.8c0,0,4,1.7,6.5,5.9
			c2.4,4.1,2.6,9,2.7,11.2C338.4,79.8,338.3,87.7,335.9,91.3z"/>
		<path fill="#FFFFFF" d="M379.9,108V87.6l16.5-36.2h-12.1l-9.7,24.4l-9.7-24.4h-12.2l16.2,36.2V108H379.9z"/>
		<path fill="#FFFFFF" d="M63.8,175.8l-13.1-17.3c0,0,2.8,0,5-1.3c2.2-1.3,3.7-2.7,3.7-2.7s2-1.8,3-5.1c1.1-3.3,0.9-5.4,0.9-5.4
			c0-3.8-1.2-6.2-1.2-6.2s-1.6-4-5.8-6.3c-4.2-2.2-9.5-2.1-9.5-2.1H32.5v46.3H41l0-17.3l12.2,17.3H63.8z M47.4,151.5l-6.4,0v-13.8h6
			c0,0,2.4,0.1,4.4,1c2,0.9,2.8,3,2.8,3s0.6,1.1,0.6,3c0,0,0.1,1-0.4,2.6c-0.5,1.6-2.5,3-2.5,3s-0.9,0.5-2,0.8
			C48.7,151.4,47.4,151.5,47.4,151.5z"/>
		<path fill="#FFFFFF" d="M108.1,175.8"/>
		<path fill="#FFFFFF" d="M134.3,129.4h-7l-19.3,46.3h9.5l4.7-12h17.1l4.8,12h9.5L134.3,129.4z M125.5,155.6l5.3-13.7l5.2,13.7
			H125.5z"/>
		<path fill="#FFFFFF" d="M201.7,175.7"/>
		<path fill="#FFFFFF" d="M238.8,146.5c-0.8-4.4-3.4-8.2-3.4-8.2s-1.7-3.1-7.1-6.1c-5.4-3-12.9-2.8-12.9-2.8h-13.7v46.4h13.7
			c3.6-0.3,2.4,0.1,7.4-0.8c5.5-1.4,8.4-3.7,9.3-4.5c0.9-0.8,4.4-3.6,6-9.2c1.6-5.6,1.3-8.7,1.3-8.7S239.6,151,238.8,146.5z
			 M230.1,158.2c-0.9,3.6-3.8,5.8-4.2,6.3c-0.5,0.5-3.1,2-5.5,2.5c-2.8,0.5-2.1,0.3-4,0.5l-6.1,0v-29.7l5.9,0c0,0,3.7-0.1,8.1,2
			c2.9,1.7,3.6,3.2,3.6,3.2s2.1,2.9,2.5,5.7c0.4,2.9,0.4,4,0.4,4S231,154.6,230.1,158.2z"/>
		<path fill="#FFFFFF" d="M287.5,129.4v46.4h8.6v-46.4H287.5z"/>
		<path fill="#FFFFFF" d="M365.6,128.5c-13.2,0-24.7,10.8-24.7,24.2c0,13.4,11,24.2,24.7,24.2c14.3,0,24.7-10.8,24.7-24.2
			C390.3,139.1,379.3,128.5,365.6,128.5z M365.8,168.5c-8.7,0-15.8-7.1-15.8-15.8c0-8.7,7.4-15.8,15.8-15.8
			c8.7,0,15.8,6.9,15.8,15.8C381.7,161.4,375,168.5,365.8,168.5z"/>
		<path fill="#FFFFFF" d="M167,79.6c0,19.5-15.6,35.3-34.9,35.3c-19.3,0-34.9-15.8-34.9-35.3s15.6-35.3,34.9-35.3
			C151.3,44.3,167,60.1,167,79.6z"/>
		<path fill="#FFFFFF" d="M161.5,79.7c0,16.9-13.2,30.7-29.4,30.7c-16.3,0-29.4-13.7-29.4-30.7c0-16.9,13.2-30.7,29.4-30.7
			C148.4,49.1,161.5,62.8,161.5,79.7z"/>
		<path fill="#ED1C24" d="M148.1,101.8c-0.2-0.5-0.3-1.1-0.3-1.7c0-2.7,2.1-4.9,4.7-4.9c0.5,0,1.1,0.1,1.5,0.3
			c0.9,0.3,1.8,0.1,2.2-0.5c2.7-4.4,4.1-9.6,4.1-15.2c0-5.5-2.7-13-4-15.1c-0.6-0.8-1.2-1-2.2-0.6c-0.5,0.2-1.1,0.3-1.6,0.3
			c-2.6,0-4.7-2.2-4.7-4.9c0-0.6,0.1-1.2,0.3-1.8c0.5-1.1-0.1-2.2-0.6-2.5c-4.4-3-9.8-4.8-15.5-4.8c-5.8,0-11.1,1.8-15.6,4.9
			c-0.4,0.3-1,1.2-0.5,2c0.3,0.6,0.5,1.4,0.5,2.1c0,2.7-2.1,4.9-4.7,4.9c-0.6,0-1,0-1.8-0.4c-1-0.4-1.9,0.3-2.2,0.8
			c-2.5,4.4-3.9,9.5-3.9,14.9c0,5.6,1.5,10.8,4.1,15.2c0.4,0.8,1.3,0.8,2.2,0.6c0.5-0.2,1-0.3,1.6-0.3c2.6,0,4.7,2.2,4.7,4.9
			c0,0.6-0.1,1.1-0.3,1.7c-0.4,1-0.4,2,0.4,2.4c4.6,2.7,9.8,4.8,15.5,4.8c5.7,0,11.1-1.8,15.5-4.8
			C148.3,103.6,148.4,102.6,148.1,101.8z"/>
		<path fill="#FFFFFF" d="M154.3,79.7c0,12.7-10,23-22.2,23c-12.3,0-22.2-10.3-22.2-23c0-12.7,10-23,22.2-23
			C144.4,56.7,154.3,67,154.3,79.7z"/>
		<g>
			<path fill="#FFFFFF" d="M132.1,98.5c-10,0-18.2-8.4-18.2-18.8c0-10.3,8.1-18.8,18.2-18.8c10,0,18.2,8.4,18.2,18.8
				C150.3,90.1,142.1,98.5,132.1,98.5z"/>
			<path fill="#ED1C24" d="M132.1,62c9.5,0,17.2,8,17.2,17.8c0,9.8-7.7,17.8-17.2,17.8c-9.5,0-17.2-8-17.2-17.8
				C114.9,69.9,122.6,62,132.1,62 M132.1,60c-10.6,0-19.1,8.9-19.1,19.7c0,10.9,8.6,19.7,19.1,19.7c10.6,0,19.1-8.9,19.1-19.7
				C151.3,68.9,142.7,60,132.1,60L132.1,60z"/>
		</g>
		<path fill="#ED1C24" d="M138.6,79.7c0,3.7-2.9,6.7-6.5,6.7c-3.6,0-6.5-3-6.5-6.7c0-3.7,2.9-6.7,6.5-6.7
			C135.7,73,138.6,76,138.6,79.7z"/>
		<path fill="#ED1C24" d="M114.9,61.3c0,0.7-0.5,1.2-1.2,1.2c-0.7,0-1.2-0.5-1.2-1.2c0-0.7,0.5-1.2,1.2-1.2
			C114.4,60.1,114.9,60.6,114.9,61.3z"/>
		<path fill="#ED1C24" d="M151.7,61.3c0,0.7-0.5,1.2-1.2,1.2c-0.7,0-1.2-0.5-1.2-1.2c0-0.7,0.5-1.2,1.2-1.2
			C151.2,60.1,151.7,60.6,151.7,61.3z"/>
		<path fill="#ED1C24" d="M114.9,98.5c0,0.7-0.5,1.2-1.2,1.2c-0.7,0-1.2-0.5-1.2-1.2c0-0.7,0.5-1.2,1.2-1.2
			C114.4,97.3,114.9,97.8,114.9,98.5z"/>
		<path fill="#ED1C24" d="M151.7,98.5c0,0.7-0.5,1.2-1.2,1.2c-0.7,0-1.2-0.5-1.2-1.2c0-0.7,0.5-1.2,1.2-1.2
			C151.2,97.3,151.7,97.8,151.7,98.5z"/>
	</g>
</g>
</svg>
